<svg width="40" height="40" viewBox="0 0 40 40" fill="none" xmlns="http://www.w3.org/2000/svg">
<circle cx="20" cy="20" r="20" fill="#EE5331"/>
<circle cx="20" cy="20" r="19.5" stroke="black" stroke-opacity="0.075"/>
<path d="M25.5 10.4737C27.5971 11.6845 29.236 13.5533 30.1627 15.7905C31.0893 18.0276 31.2519 20.508 30.6252 22.847C29.9985 25.186 28.6175 27.2528 26.6964 28.7269C24.7753 30.201 22.4215 31 20 31C17.5785 31 15.2247 30.201 13.3036 28.7269C11.3825 27.2528 10.0015 25.186 9.37482 22.847C8.74809 20.508 8.91067 18.0276 9.83732 15.7905C10.764 13.5533 12.4029 11.6845 14.5 10.4737" stroke="white" stroke-width="2" stroke-linecap="round"/>
<path d="M25.5 10.4737C27.5971 11.6845 29.236 13.5533 30.1627 15.7905C31.0893 18.0276 31.2519 20.508 30.6252 22.847C29.9985 25.186 28.6175 27.2528 26.6964 28.7269C24.7753 30.201 22.4215 31 20 31C17.5785 31 15.2247 30.201 13.3036 28.7269C11.3825 27.2528 10.0015 25.186 9.37482 22.847C8.74809 20.508 8.91067 18.0276 9.83732 15.7905C10.764 13.5533 12.4029 11.6845 14.5 10.4737" stroke="white" stroke-width="2" stroke-linecap="round"/>
<path d="M20 9V20" stroke="white" stroke-width="2" stroke-linecap="round"/>
</svg>
